<?xml version="1.0" standalone="no"?>
<!DOCTYPE svg PUBLIC "-//W3C//DTD SVG 20010904//EN"
 "http://www.w3.org/TR/2001/REC-SVG-20010904/DTD/svg10.dtd">
<svg version="1.0" xmlns="http://www.w3.org/2000/svg"
 width="512.000000pt" height="512.000000pt" viewBox="0 0 512.000000 512.000000"
 preserveAspectRatio="xMidYMid meet">
<metadata>
Created by potrace 1.11, written by Peter Selinger 2001-2013
</metadata>
<g transform="translate(0.000000,512.000000) scale(0.100000,-0.100000)"
fill="#000000" stroke="none">
<path d="M2120 4786 c0 -1 30 -11 68 -20 107 -27 203 -57 250 -77 23 -11 47
-19 52 -19 5 0 44 -16 87 -36 80 -36 90 -41 152 -76 36 -21 50 -29 135 -81
202 -123 423 -345 563 -567 12 -19 25 -42 29 -50 4 -8 15 -26 24 -40 18 -28
77 -165 108 -250 79 -219 118 -493 110 -761 -4 -111 -9 -147 -31 -211 -28 -84
-67 -160 -99 -195 l-21 -22 -46 32 c-25 18 -54 37 -63 42 -10 6 -111 73 -225
150 -114 77 -215 145 -225 150 -9 6 -137 91 -285 190 -147 99 -275 185 -284
190 -10 6 -111 73 -225 150 -115 77 -213 142 -219 144 -20 7 -36 24 -28 30 5
3 49 56 98 116 49 61 92 112 95 115 3 3 46 55 95 115 49 61 98 119 107 129 10
11 18 23 18 27 0 10 -58 17 -250 29 -96 6 -302 20 -458 32 -166 12 -286 17
-291 12 -4 -5 -43 -54 -86 -109 -44 -55 -86 -108 -94 -117 -9 -10 -23 -26 -32
-35 -8 -10 -78 -97 -154 -193 -76 -96 -143 -179 -149 -185 -6 -5 -36 -41 -66
-80 -30 -38 -58 -71 -62 -73 -15 -7 -8 -30 15 -45 12 -8 31 -23 42 -33 17 -16
80 -67 133 -109 7 -5 21 -17 30 -26 9 -9 62 -51 117 -94 55 -44 102 -82 105
-85 3 -3 41 -34 84 -69 l79 -64 41 45 c47 52 65 71 203 231 56 65 112 130 123
144 26 33 29 31 173 -83 59 -46 111 -84 116 -84 5 0 11 -4 13 -9 2 -4 68 -57
148 -117 80 -60 150 -113 156 -119 7 -5 24 -19 40 -30 15 -11 50 -38 78 -60
28 -23 76 -58 106 -80 30 -22 96 -72 147 -112 51 -40 96 -73 102 -73 5 0 11
-4 13 -9 2 -5 62 -53 133 -106 72 -54 144 -108 160 -121 17 -13 63 -48 102
-79 83 -64 83 -72 4 -122 -24 -15 -49 -33 -55 -38 -6 -6 -40 -24 -76 -41 -243
-116 -411 -154 -684 -154 -257 0 -461 35 -766 130 -30 9 -82 25 -115 35 -89
27 -162 50 -242 76 -40 13 -74 21 -76 19 -3 -3 -31 -43 -62 -89 -54 -77 -57
-86 -41 -95 10 -6 35 -22 55 -35 71 -47 385 -203 501 -248 672 -264 1287 -278
1760 -39 103 52 174 98 272 174 l56 43 139 -93 c76 -51 140 -95 143 -98 3 -3
52 -37 110 -75 58 -39 107 -72 110 -75 3 -3 32 -23 65 -46 33 -22 109 -74 168
-115 60 -40 116 -78 125 -84 9 -5 37 -24 62 -40 87 -59 124 -70 245 -70 106 0
112 1 155 30 63 43 90 100 90 191 0 106 -43 183 -132 239 -9 6 -46 31 -83 57
-36 27 -68 48 -70 48 -4 0 -34 20 -133 90 -23 16 -45 30 -47 30 -2 0 -30 18
-62 40 -32 22 -65 45 -73 50 -102 70 -322 210 -330 210 -5 0 -10 3 -10 8 0 4
-24 22 -52 39 -85 52 -80 46 -67 79 6 16 19 49 29 74 23 56 55 179 75 288 21
114 21 480 -1 611 -36 224 -105 449 -206 669 -21 46 -38 86 -38 87 0 8 -65
100 -72 103 -4 2 -8 10 -8 18 0 8 -7 17 -15 20 -8 4 -15 11 -15 18 0 13 -184
220 -246 277 -82 75 -203 168 -284 220 -47 30 -95 60 -105 66 -71 45 -254 126
-355 157 -232 73 -366 96 -557 96 -79 0 -143 -2 -143 -4z"/>
<path d="M1330 2128 c-52 -25 -144 -112 -138 -130 4 -13 36 -25 168 -66 264
-81 251 -79 263 -27 13 58 2 152 -19 177 -55 60 -196 84 -274 46z"/>
<path d="M949 1643 c-112 -143 -233 -263 -414 -407 -83 -66 -155 -125 -161
-133 -6 -7 -16 -13 -22 -13 -6 0 -12 -4 -14 -9 -1 -5 -43 -41 -93 -81 -49 -41
-99 -85 -112 -99 -12 -14 -29 -33 -36 -41 -94 -105 -127 -279 -72 -393 36 -76
46 -86 120 -113 91 -32 243 -35 310 -4 49 22 119 96 191 203 27 39 52 77 57
82 24 31 94 126 107 145 8 13 34 47 58 76 23 29 42 57 42 62 0 6 3 12 8 14 8
3 102 125 102 132 0 2 9 15 20 28 10 12 56 70 100 128 44 58 86 112 93 120 6
9 30 38 52 65 22 28 56 68 77 90 21 22 38 43 38 47 0 5 -21 18 -47 31 -80 39
-164 87 -236 133 -37 24 -71 44 -76 44 -4 0 -46 -48 -92 -107z"/>
</g>
</svg>
